<?xml version="1.0" encoding="utf-8"?>
<!-- Generator: Adobe Illustrator 22.0.0, SVG Export Plug-In . SVG Version: 6.00 Build 0)  -->
<svg version="1.1" id="Camada_1" xmlns="http://www.w3.org/2000/svg" xmlns:xlink="http://www.w3.org/1999/xlink" x="0px" y="0px"
	 viewBox="0 0 1920 1080" enable-background="new 0 0 1920 1080" xml:space="preserve">
<g>
	<g>
		<path fill="#FFFFFF" d="M443.4,170.3c269.9,0,539.8,0,810.7,0c0.8,20.4,0,40.9,0.5,61.9c-249.7,0-498.7,0-748.4,0
			c0,103.8,0,207.2,0,310.9c20.2,0,40.4,0,61.1,0c0-82.3,0-164.6,0-246.3c0.8-0.9,1.1-1.3,1.4-1.6c0.3-0.2,0.8-0.5,1.1-0.5
			c19.8,0,39.5,0,59.8,0c0,82.8,0,165.1,0,248.1c20.9,0,41.4,0,62.3,0c0-82.3,0-164.6,0-247.5c20.9,0,41.4,0,62.1,0
			c0,103.3,0,206.3,0,310.3c-103.6,0-207.1,0-310.6,0C443.4,460.5,443.4,315.4,443.4,170.3z"/>
		<path fill="#FFFFFF" d="M443.4,667.8c249.4,0,498.7,0,748.5,0c0-20.7,0-40.9,0-61.9c-41,0-82.1,0-123.6,0c0-103.9,0-206.9,0-310.5
			c61.7,0,123.6,0,186.2,0c0,144.9,0,289.8,0,434.7c-270.4,0-540.7,0-811.1,0C443.4,709.2,443.4,688.5,443.4,667.8z M1192,357.3
			c-21.3,0-41.4,0-61.5,0c-1.7,40.9-1.1,174.5,0.8,185.6c20.2,0,40.3,0,60.7,0C1192,480.9,1192,419.4,1192,357.3z"/>
		<path fill="#FFFFFF" d="M816.7,605.1c0-103.4,0-206.4,0-309.9c62.9,0,125.7,0,188.7,0c0,61.8,0,123.4,0,185.9
			c-41.2,0-82.3,0-123.8,0c0,21.1,0,41.2,0,61.8c40.9,0,81.7,0,122,0c0.9,0.8,1.3,1,1.6,1.4c0.2,0.3,0.5,0.7,0.5,1.1
			c0,19.8,0,39.5,0,59.7C942.8,605.1,880.4,605.1,816.7,605.1z M943.3,357.3c-21.3,0-41.4,0-61.9,0c0,20.2,0,39.9,0,59.7
			c0,0.4,0.2,0.8,0.5,1.1c0.3,0.3,0.6,0.6,0.4,0.4c20.6,0,40.7,0,61,0C943.3,398,943.3,377.9,943.3,357.3z"/>
	</g>
</g>
<text transform="matrix(0.8941 -0.4754 0.4695 0.8829 612.2867 874.8086)" font-family="'SegoeScript'" font-size="160.39px" letter-spacing="2">Simulator</text>
</svg>
